# xmcd CD Database Entry
#
# Track frame offsets:
# 150
# 18825
# 38475
# 49800
# 68250
# 89175
# 106050
# 127050
# 145050
# 160800
# 174900
# 187650
# 209550
#
# Disc length: 2863 seconds
#
# Revision: 2
# Processed by: cddbd v1.4PL0 Copyright (c) Steve Scherf et al.
# Submitted via: tcd 2.0b
#
DISCID=a30b2d0d
DTITLE=Les Binuchards - Ô l'a buffé !
DYEAR=1900
DGENRE=
TTITLE0=Ô l'a buffé
TTITLE1=Il faut vivre
TTITLE2=Les cons
TTITLE3=Ballade celtique
TTITLE4=Les vaches maigres
TTITLE5=Madeleine
TTITLE6=Bal de la lune
TTITLE7=Cordouan
TTITLE8=Sirène d'amour
TTITLE9=Les Binuchards
TTITLE10=La vie d'artiste
TTITLE11=Bernard l'ours
TTITLE12=
EXTD=
EXTT0=
EXTT1=
EXTT2=
EXTT3=
EXTT4=
EXTT5=
EXTT6=
EXTT7=
EXTT8=
EXTT9=
EXTT10=
EXTT11=
EXTT12=
PLAYORDER=
